<svg width="433" height="509" xmlns="http://www.w3.org/2000/svg">
  <path d="M0 381.507h433V0H0Z" fill="#fdb826"/>
  <path d="m304.182 110.839-63.92 215.464h-47.754l-64.38-215.608h-.03v215.608h-75.34v-44.847h25.861V96.312H52.758v-44.82H160.49l28.738 99.793 27.559 93.953 26.725-95.535 27.53-98.21h107.732v44.819h-26.265v185.144h26.265v44.847h-74.506V110.84M0 509.002h433V381.507H0Z"/>
  <path d="M351.043 424.888c-8.889 0-15.592 5.638-15.592 19.302 0 8.89 3.596 19.303 15.592 19.303 11.305 0 15.592-9.925 15.592-19.303 0-9.579-4.287-19.302-15.592-19.302m0 51.435c-19.446 0-30.867-15.045-30.867-32.133 0-17.087 11.42-32.132 30.867-32.132 19.475 0 30.867 15.045 30.867 32.132 0 17.088-11.392 32.133-30.867 32.133m-80.145-34.865h13.981c4.89-.087 8.141-2.56 8.141-8.2 0-5.637-3.25-8.111-8.141-8.226h-13.98Zm-15.246-27.703h30.493c13.722 0 22.15 6.329 22.15 20.022 0 7.853-4.976 14.153-12.628 16.397l13.98 24.452H292.59l-11.996-21.892h-9.695v21.892h-15.246m-61.159-60.871h47.178v11.794h-15.966v49.077H210.46v-49.077h-15.966m-58.195 49.077v-60.871h44.934v11.794h-29.659v11.104h27.674v11.824h-27.674v14.326h29.515v11.823m-131.12-60.871h22.38l10.788 45.222h.173l11.161-45.222h22.122v60.87H102.18v-47.292h-.172l-12.082 47.293H76.463l-12.428-47.293h-.172v47.293H49.97" fill="#fff"/>
</svg>
