<?xml version="1.0" encoding="UTF-8" standalone="no"?>
<!DOCTYPE svg PUBLIC "-//W3C//DTD SVG 1.1//EN" "http://www.w3.org/Graphics/SVG/1.1/DTD/svg11.dtd"
[
<!ATTLIST g
  xmlns:vectornator CDATA #FIXED "http://vectornator.io"
  vectornator:layerName CDATA #IMPLIED >
<!ATTLIST g
  xmlns:vectornator CDATA #FIXED "http://vectornator.io"
  vectornator:mask CDATA #IMPLIED >
<!ATTLIST text
  xmlns:vectornator CDATA #FIXED "http://vectornator.io"
  vectornator:width CDATA #IMPLIED >

<!ATTLIST path
  xmlns:vectornator CDATA #FIXED "http://vectornator.io"
  vectornator:blendMode CDATA #IMPLIED >
<!ATTLIST path
  xmlns:vectornator CDATA #FIXED "http://vectornator.io"
  vectornator:shadowColor CDATA #IMPLIED >
<!ATTLIST path
  xmlns:vectornator CDATA #FIXED "http://vectornator.io"
  vectornator:shadowOpacity CDATA #IMPLIED >
<!ATTLIST path
  xmlns:vectornator CDATA #FIXED "http://vectornator.io"
  vectornator:shadowRadius CDATA #IMPLIED >
<!ATTLIST path
  xmlns:vectornator CDATA #FIXED "http://vectornator.io"
  vectornator:shadowOffset CDATA #IMPLIED >
<!ATTLIST path
  xmlns:vectornator CDATA #FIXED "http://vectornator.io"
  vectornator:shadowAngle CDATA #IMPLIED >

<!ATTLIST image
  xmlns:vectornator CDATA #FIXED "http://vectornator.io"
  vectornator:blendMode CDATA #IMPLIED >
<!ATTLIST image
  xmlns:vectornator CDATA #FIXED "http://vectornator.io"
  vectornator:shadowColor CDATA #IMPLIED >
<!ATTLIST image
  xmlns:vectornator CDATA #FIXED "http://vectornator.io"
  vectornator:shadowOpacity CDATA #IMPLIED >
<!ATTLIST image
  xmlns:vectornator CDATA #FIXED "http://vectornator.io"
  vectornator:shadowRadius CDATA #IMPLIED >
<!ATTLIST image
  xmlns:vectornator CDATA #FIXED "http://vectornator.io"
  vectornator:shadowOffset CDATA #IMPLIED >
<!ATTLIST image
  xmlns:vectornator CDATA #FIXED "http://vectornator.io"
  vectornator:shadowAngle CDATA #IMPLIED >

<!ATTLIST g
  xmlns:vectornator CDATA #FIXED "http://vectornator.io"
  vectornator:blendMode CDATA #IMPLIED >
<!ATTLIST g
  xmlns:vectornator CDATA #FIXED "http://vectornator.io"
  vectornator:shadowColor CDATA #IMPLIED >
<!ATTLIST g
  xmlns:vectornator CDATA #FIXED "http://vectornator.io"
  vectornator:shadowOpacity CDATA #IMPLIED >
<!ATTLIST g
  xmlns:vectornator CDATA #FIXED "http://vectornator.io"
  vectornator:shadowRadius CDATA #IMPLIED >
<!ATTLIST g
  xmlns:vectornator CDATA #FIXED "http://vectornator.io"
  vectornator:shadowOffset CDATA #IMPLIED >
<!ATTLIST g
  xmlns:vectornator CDATA #FIXED "http://vectornator.io"
  vectornator:shadowAngle CDATA #IMPLIED >

<!ENTITY % SVG.filter.extra.content  "| feDropShadow" >
<!ELEMENT feDropShadow EMPTY>
<!ATTLIST feDropShadow
  xmlns:svg CDATA #FIXED "http://www.w3.org/Graphics/SVG/1.1/DTD/svg11.dtd"
  dx CDATA #IMPLIED>
<!ATTLIST feDropShadow
  xmlns:svg CDATA #FIXED "http://www.w3.org/Graphics/SVG/1.1/DTD/svg11.dtd"
  dy CDATA #IMPLIED>
<!ATTLIST feDropShadow
  xmlns:svg CDATA #FIXED "http://www.w3.org/Graphics/SVG/1.1/DTD/svg11.dtd"
  stdDeviation CDATA #IMPLIED>
<!ATTLIST feDropShadow
  xmlns:svg CDATA #FIXED "http://www.w3.org/Graphics/SVG/1.1/DTD/svg11.dtd"
  flood-opacity CDATA #IMPLIED>
<!ATTLIST feDropShadow
  xmlns:svg CDATA #FIXED "http://www.w3.org/Graphics/SVG/1.1/DTD/svg11.dtd"
  in CDATA #IMPLIED>
<!ATTLIST feDropShadow
  xmlns:svg CDATA #FIXED "http://www.w3.org/Graphics/SVG/1.1/DTD/svg11.dtd"
  result CDATA #IMPLIED>
<!ATTLIST feDropShadow
  xmlns:svg CDATA #FIXED "http://www.w3.org/Graphics/SVG/1.1/DTD/svg11.dtd"
  flood-color CDATA #IMPLIED>
]
>
<!-- Created with Vectornator (http://vectornator.io/) -->
<svg height="100%" stroke-miterlimit="10" style="fill-rule:nonzero;clip-rule:evenodd;stroke-linecap:round;stroke-linejoin:round;" version="1.1" viewBox="0 0 1024 1024" width="100%" xml:space="preserve" xmlns="http://www.w3.org/2000/svg" xmlns:vectornator="http://vectornator.io" xmlns:xlink="http://www.w3.org/1999/xlink">
<defs>
<clipPath id="TextBounds">
<rect height="433.7" width="886.051" x="72.0718" y="111.786"/>
</clipPath>
<clipPath id="TextBounds_2">
<rect height="455.35" width="886.051" x="72.0636" y="431.275"/>
</clipPath>
</defs>
<g id="Layer-1" vectornator:layerName="Layer 1">
<g fill="#c8102e" opacity="1" stroke="none">
<path clip-path="url(#TextBounds)" d="M211.853 334.161C228.259 334.161 241.02 331.882 250.134 327.325C264.457 320.163 271.619 307.273 271.619 288.653C271.619 269.903 264.001 257.273 248.767 250.762C240.173 247.117 227.413 245.294 210.486 245.294L141.15 245.294L141.15 334.161L211.853 334.161ZM224.939 466.583C248.767 466.583 265.759 459.682 275.916 445.88C282.296 437.156 285.486 426.609 285.486 414.239C285.486 393.406 276.176 379.213 257.556 371.661C247.66 367.624 234.574 365.606 218.298 365.606L141.15 365.606L141.15 466.583L224.939 466.583ZM103.064 212.872L226.306 212.872C259.9 212.872 283.793 222.898 297.986 242.95C306.319 254.799 310.486 268.471 310.486 283.966C310.486 302.064 305.343 316.908 295.056 328.497C289.718 334.617 282.035 340.216 272.009 345.294C286.723 350.893 297.725 357.208 305.017 364.239C317.908 376.739 324.353 393.992 324.353 415.997C324.353 434.486 318.559 451.218 306.97 466.192C289.652 488.588 262.113 499.786 224.353 499.786L103.064 499.786L103.064 212.872Z" fill-rule="evenodd"/>
<path clip-path="url(#TextBounds)" d="M367.126 290.606L400.525 290.606L400.525 326.739C403.259 319.708 409.965 311.147 420.642 301.055C431.319 290.964 443.624 285.919 457.556 285.919C458.207 285.919 459.314 285.984 460.876 286.114C462.439 286.244 465.108 286.505 468.884 286.895L468.884 324.005C466.801 323.614 464.88 323.354 463.123 323.223C461.365 323.093 459.444 323.028 457.361 323.028C439.652 323.028 426.046 328.725 416.541 340.118C407.035 351.511 402.283 364.63 402.283 379.473L402.283 499.786L367.126 499.786L367.126 290.606Z" fill-rule="evenodd"/>
<path clip-path="url(#TextBounds)" d="M499.353 291.583L535.095 291.583L535.095 499.786L499.353 499.786L499.353 291.583ZM499.353 212.872L535.095 212.872L535.095 252.716L499.353 252.716L499.353 212.872Z" fill-rule="evenodd"/>
<path clip-path="url(#TextBounds)" d="M595.251 232.208L630.798 232.208L630.798 290.606L664.197 290.606L664.197 319.317L630.798 319.317L630.798 455.841C630.798 463.132 633.272 468.015 638.22 470.489C640.955 471.921 645.512 472.637 651.892 472.637C653.585 472.637 655.408 472.605 657.361 472.54C659.314 472.475 661.593 472.312 664.197 472.051L664.197 499.786C660.16 500.958 655.961 501.804 651.599 502.325C647.237 502.846 642.517 503.106 637.439 503.106C621.033 503.106 609.9 498.907 604.041 490.509C598.181 482.11 595.251 471.205 595.251 457.794L595.251 319.317L566.931 319.317L566.931 290.606L595.251 290.606L595.251 232.208Z" fill-rule="evenodd"/>
</g>
</g>
<g id="Layer-2" vectornator:layerName="Layer 2">
<g fill="#012169" opacity="1" stroke="none">
<path clip-path="url(#TextBounds_2)" d="M211.845 653.65C228.251 653.65 241.012 651.371 250.126 646.814C264.449 639.653 271.61 626.762 271.61 608.142C271.61 589.392 263.993 576.762 248.759 570.252C240.165 566.606 227.405 564.783 210.478 564.783L141.142 564.783L141.142 653.65L211.845 653.65ZM224.931 786.072C248.759 786.072 265.751 779.171 275.907 765.369C282.288 756.645 285.478 746.098 285.478 733.728C285.478 712.895 276.168 698.702 257.548 691.15C247.652 687.114 234.566 685.095 218.29 685.095L141.142 685.095L141.142 786.072L224.931 786.072ZM103.056 532.361L226.298 532.361C259.892 532.361 283.785 542.387 297.978 562.439C306.311 574.288 310.478 587.96 310.478 603.455C310.478 621.554 305.334 636.397 295.048 647.986C289.709 654.106 282.027 659.705 272.001 664.783C286.715 670.382 297.717 676.697 305.009 683.728C317.9 696.228 324.345 713.481 324.345 735.486C324.345 753.976 318.551 770.707 306.962 785.681C289.644 808.077 262.105 819.275 224.345 819.275L103.056 819.275L103.056 532.361Z" fill-rule="evenodd"/>
<path clip-path="url(#TextBounds_2)" d="M401.298 610.095L401.298 748.963C401.298 759.64 402.991 768.364 406.376 775.134C412.626 787.634 424.28 793.884 441.337 793.884C465.816 793.884 482.483 782.947 491.337 761.072C496.155 749.353 498.564 733.272 498.564 712.83L498.564 610.095L533.72 610.095L533.72 819.275L500.517 819.275L500.907 788.416C496.35 796.358 490.686 803.064 483.915 808.533C470.504 819.47 454.228 824.939 435.087 824.939C405.269 824.939 384.957 814.978 374.15 795.056C368.29 784.379 365.36 770.121 365.36 752.283L365.36 610.095L401.298 610.095Z" fill-rule="evenodd"/>
<path clip-path="url(#TextBounds_2)" d="M609.501 753.65C610.543 765.369 613.472 774.353 618.29 780.603C627.144 791.931 642.509 797.595 664.384 797.595C677.405 797.595 688.863 794.763 698.759 789.099C708.655 783.435 713.603 774.679 713.603 762.83C713.603 753.845 709.631 747.009 701.689 742.322C696.61 739.457 686.584 736.137 671.61 732.361L643.681 725.33C625.842 720.903 612.691 715.955 604.228 710.486C589.123 700.981 581.571 687.83 581.571 671.033C581.571 651.241 588.7 635.226 602.958 622.986C617.216 610.746 636.389 604.627 660.478 604.627C691.988 604.627 714.709 613.871 728.642 632.361C737.366 644.08 741.597 656.71 741.337 670.252L708.134 670.252C707.483 662.309 704.683 655.082 699.735 648.572C691.663 639.327 677.665 634.705 657.743 634.705C644.462 634.705 634.403 637.244 627.568 642.322C620.732 647.4 617.314 654.106 617.314 662.439C617.314 671.554 621.806 678.845 630.79 684.314C635.998 687.569 643.681 690.434 653.837 692.908L677.079 698.572C702.34 704.692 719.267 710.616 727.86 716.345C741.532 725.33 748.368 739.457 748.368 758.728C748.368 777.348 741.304 793.429 727.177 806.97C713.049 820.512 691.532 827.283 662.626 827.283C631.506 827.283 609.469 820.219 596.513 806.091C583.557 791.964 576.623 774.483 575.712 753.65L609.501 753.65Z" fill-rule="evenodd"/>
</g>
</g>
</svg>
