<?xml version="1.0" encoding="UTF-8" standalone="no"?>
<!DOCTYPE svg PUBLIC "-//W3C//DTD SVG 1.1//EN" "http://www.w3.org/Graphics/SVG/1.1/DTD/svg11.dtd">
<!-- Created with Vectornator (http://vectornator.io/) -->
<svg height="100%" stroke-miterlimit="10" style="fill-rule:nonzero;clip-rule:evenodd;stroke-linecap:round;stroke-linejoin:round;" version="1.1" viewBox="0 0 1024 1024" width="100%" xml:space="preserve" xmlns="http://www.w3.org/2000/svg" xmlns:vectornator="http://vectornator.io" xmlns:xlink="http://www.w3.org/1999/xlink">
<defs/>
<path d="M0 0L1024 0L1024 1024L0 1024L0 0Z" fill="#ffffff" fill-rule="nonzero" opacity="1" stroke="none"/>
<g id="Layer-1" vectornator:layerName="Layer 1">
<g fill="#eb6ea5" opacity="1" stroke="none">
<path d="M312.83 207.872L312.83 242.051L216.15 242.051L216.15 494.786L176.697 494.786L176.697 242.051L80.0171 242.051L80.0171 207.872L312.83 207.872Z"/>
<path d="M330.017 285.606L363.416 285.606L363.416 321.739C366.15 314.708 372.856 306.147 383.533 296.055C394.21 285.964 406.514 280.919 420.447 280.919C421.098 280.919 422.205 280.984 423.767 281.114C425.33 281.244 427.999 281.505 431.775 281.895L431.775 319.005C429.692 318.614 427.771 318.354 426.013 318.223C424.255 318.093 422.335 318.028 420.251 318.028C402.543 318.028 388.936 323.725 379.431 335.118C369.926 346.511 365.173 359.63 365.173 374.473L365.173 494.786L330.017 494.786L330.017 285.606Z"/>
<path d="M489.197 439.122C489.197 449.278 492.908 457.286 500.33 463.145C507.751 469.005 516.541 471.934 526.697 471.934C539.067 471.934 551.046 469.07 562.634 463.341C582.166 453.835 591.931 438.275 591.931 416.661L591.931 388.341C587.634 391.075 582.1 393.354 575.33 395.176C568.559 396.999 561.918 398.301 555.408 399.083L534.119 401.817C521.358 403.51 511.788 406.179 505.408 409.825C494.6 415.945 489.197 425.71 489.197 439.122ZM574.353 368.028C582.426 366.986 587.83 363.601 590.564 357.872C592.126 354.747 592.908 350.255 592.908 344.395C592.908 332.416 588.643 323.725 580.115 318.321C571.586 312.917 559.379 310.216 543.494 310.216C525.134 310.216 512.113 315.163 504.431 325.059C500.134 330.528 497.335 338.666 496.033 349.473L463.22 349.473C463.871 323.692 472.237 305.756 488.318 295.665C504.399 285.574 523.051 280.528 544.275 280.528C568.884 280.528 588.871 285.216 604.236 294.591C619.47 303.966 627.087 318.549 627.087 338.341L627.087 458.848C627.087 462.494 627.836 465.424 629.333 467.637C630.831 469.851 633.988 470.958 638.806 470.958C640.369 470.958 642.126 470.86 644.08 470.665C646.033 470.469 648.116 470.176 650.33 469.786L650.33 495.762C644.861 497.325 640.694 498.301 637.83 498.692C634.965 499.083 631.059 499.278 626.111 499.278C614.001 499.278 605.212 494.981 599.744 486.387C596.879 481.83 594.861 475.385 593.689 467.051C586.528 476.426 576.241 484.564 562.83 491.466C549.418 498.367 534.639 501.817 518.494 501.817C499.093 501.817 483.24 495.925 470.935 484.141C458.63 472.357 452.478 457.611 452.478 439.903C452.478 420.502 458.533 405.463 470.642 394.786C482.751 384.109 498.637 377.533 518.298 375.059L574.353 368.028Z"/>
<path d="M701.892 285.606L757.751 455.919L816.15 285.606L854.626 285.606L775.72 494.786L738.22 494.786L661.072 285.606L701.892 285.606Z"/>
<path d="M884.705 286.583L920.447 286.583L920.447 494.786L884.705 494.786L884.705 286.583ZM884.705 207.872L920.447 207.872L920.447 247.716L884.705 247.716L884.705 207.872Z"/>
</g>
</g>
<g id="Layer-2" vectornator:layerName="Layer 2">
<g fill="#696aad" opacity="1" stroke="none">
<path d="M228.056 529.939C255.009 529.939 278.316 535.147 297.978 545.564C326.493 560.538 343.941 586.775 350.321 624.275L311.845 624.275C307.157 603.311 297.457 588.045 282.743 578.474C268.03 568.904 249.475 564.119 227.079 564.119C200.517 564.119 178.153 574.08 159.989 594.002C141.825 613.923 132.743 643.611 132.743 683.064C132.743 717.179 140.23 744.946 155.204 766.365C170.178 787.784 194.592 798.494 228.446 798.494C254.358 798.494 275.81 790.974 292.802 775.935C309.794 760.896 318.485 736.58 318.876 702.986L229.032 702.986L229.032 670.759L355.009 670.759L355.009 824.275L330.009 824.275L320.634 787.361C307.483 801.814 295.829 811.84 285.673 817.439C268.616 827.075 246.936 831.892 220.634 831.892C186.65 831.892 157.418 820.89 132.939 798.884C106.246 771.28 92.8995 733.39 92.8995 685.213C92.8995 637.166 105.92 598.95 131.962 570.564C156.702 543.481 188.733 529.939 228.056 529.939Z"/>
<path d="M493.485 801.619C516.793 801.619 532.776 792.797 541.435 775.154C550.094 757.511 554.423 737.882 554.423 716.267C554.423 696.736 551.298 680.851 545.048 668.611C535.152 649.34 518.095 639.705 493.876 639.705C472.392 639.705 456.767 647.908 447.001 664.314C437.235 680.72 432.353 700.512 432.353 723.689C432.353 745.955 437.235 764.509 447.001 779.353C456.767 794.197 472.262 801.619 493.485 801.619ZM494.853 609.041C521.806 609.041 544.592 618.025 563.212 635.994C581.832 653.963 591.142 680.395 591.142 715.291C591.142 749.015 582.939 776.879 566.532 798.884C550.126 820.89 524.67 831.892 490.165 831.892C461.389 831.892 438.538 822.159 421.61 802.693C404.683 783.227 396.22 757.088 396.22 724.275C396.22 689.119 405.139 661.124 422.978 640.291C440.816 619.457 464.775 609.041 494.853 609.041Z"/>
</g>
</g>
</svg>
