<svg xmlns="http://www.w3.org/2000/svg" viewBox="0 0 256 256" role="img" aria-label="Travigo">
  <defs>
    <linearGradient id="brand" x1="26" y1="58" x2="226" y2="188" gradientUnits="userSpaceOnUse">
      <stop offset="0" stop-color="#ec4899"/>
      <stop offset="0.54" stop-color="#6366f1"/>
      <stop offset="1" stop-color="#2563eb"/>
    </linearGradient>
    <linearGradient id="pin" x1="180" y1="48" x2="220" y2="114" gradientUnits="userSpaceOnUse">
      <stop offset="0" stop-color="#60a5fa"/>
      <stop offset="1" stop-color="#2563eb"/>
    </linearGradient>
    <filter id="shadow" x="-15%" y="-15%" width="130%" height="140%">
      <feDropShadow dx="0" dy="8" stdDeviation="10" flood-color="#0f172a" flood-opacity="0.16"/>
    </filter>
  </defs>

  <rect width="256" height="256" rx="58" fill="#f8fafc"/>
  <rect x="14" y="14" width="228" height="228" rx="52" fill="#ffffff" filter="url(#shadow)"/>
  <rect x="14" y="14" width="228" height="228" rx="52" fill="#eff6ff" opacity="0.72"/>

  <path
    d="M42 176c34-34 68-36 101-5 19 18 41 23 69 12"
    fill="none"
    stroke="#bfdbfe"
    stroke-width="14"
    stroke-linecap="round"
    stroke-linejoin="round"
  />

  <text
    x="28"
    y="125"
    fill="url(#brand)"
    font-family="Inter, Arial, Helvetica, sans-serif"
    font-size="48"
    font-weight="850"
    letter-spacing="-2"
  >Travigo</text>

  <g filter="url(#shadow)">
    <path
      d="M199 43c-18 0-31 13.5-31 30 0 22 31 54 31 54s31-32 31-54c0-16.5-13-30-31-30Z"
      fill="url(#pin)"
    />
    <circle cx="199" cy="73" r="12" fill="#ffffff"/>
  </g>

  <g filter="url(#shadow)">
    <rect x="51" y="143" width="46" height="38" rx="13" fill="#f59e0b"/>
    <rect x="59" y="153" width="30" height="10" rx="5" fill="#ffffff" opacity="0.9"/>
    <circle cx="63" cy="181" r="5" fill="#ffffff"/>
    <circle cx="85" cy="181" r="5" fill="#ffffff"/>
  </g>
</svg>
