<?xml version="1.0" standalone="no"?>
<!DOCTYPE svg PUBLIC "-//W3C//DTD SVG 20010904//EN"
 "http://www.w3.org/TR/2001/REC-SVG-20010904/DTD/svg10.dtd">
<svg version="1.0" xmlns="http://www.w3.org/2000/svg"
 width="512.000000pt" height="512.000000pt" viewBox="0 0 512.000000 512.000000"
 preserveAspectRatio="xMidYMid meet">
<metadata>
Created by potrace 1.14, written by Peter Selinger 2001-2017
</metadata>
<g transform="translate(0.000000,512.000000) scale(0.100000,-0.100000)"
fill="#000000" stroke="none">
<path d="M520 3335 l0 -717 368 4 c391 5 412 7 516 60 52 26 130 100 160 152
67 114 74 265 18 378 -38 78 -60 99 -151 147 -70 37 -71 38 -46 49 46 21 112
92 136 145 20 43 24 69 24 147 0 82 -4 103 -26 151 -35 73 -87 125 -168 163
l-66 31 -382 3 -383 3 0 -716z m735 524 c71 -36 100 -90 100 -184 0 -100 -29
-149 -110 -190 l-60 -30 -237 -3 -238 -3 0 221 0 221 248 -3 c243 -3 249 -3
297 -29z m30 -597 c89 -41 129 -92 141 -180 14 -109 -36 -211 -128 -259 l-53
-28 -267 -3 -268 -3 0 251 0 251 263 -3 c249 -3 265 -4 312 -26z"/>
<path d="M2500 3955 l0 -95 85 0 85 0 0 95 0 95 -85 0 -85 0 0 -95z"/>
<path d="M2980 3815 l0 -145 -70 0 -70 0 0 -75 0 -75 70 0 69 0 3 -392 c3
-361 5 -396 22 -431 31 -62 68 -81 164 -86 45 -1 98 0 117 3 l35 7 0 69 0 70
-59 0 c-43 0 -65 5 -82 19 l-24 19 -3 361 -3 361 86 0 85 0 0 75 0 75 -85 0
-85 0 0 145 0 145 -85 0 -85 0 0 -145z"/>
<path d="M2207 3676 c-58 -21 -115 -65 -161 -123 l-41 -53 -3 85 -3 85 -79 0
-80 0 0 -525 0 -525 85 0 84 0 3 343 3 342 27 50 c53 100 125 145 234 148 l64
2 0 92 0 93 -47 0 c-27 -1 -65 -7 -86 -14z"/>
<path d="M2500 3140 l0 -520 85 0 85 0 0 520 0 520 -85 0 -85 0 0 -520z"/>
<path d="M520 1739 l0 -721 363 5 c380 4 401 7 509 55 57 25 127 88 167 150
46 73 64 151 58 249 -8 140 -60 220 -186 287 l-63 33 46 33 c97 66 142 167
134 299 -11 173 -125 292 -308 321 -36 5 -212 10 -392 10 l-328 0 0 -721z
m630 551 c143 -19 206 -85 204 -215 0 -77 -15 -113 -61 -157 -56 -54 -97 -61
-350 -66 l-233 -4 0 226 0 226 183 0 c100 0 216 -5 257 -10z m98 -613 c68 -18
123 -57 152 -110 20 -34 24 -56 24 -117 0 -85 -20 -133 -76 -187 -66 -64 -85
-67 -375 -71 l-263 -3 0 250 0 251 243 0 c171 0 258 -4 295 -13z"/>
<path d="M3202 2089 c-220 -37 -354 -251 -266 -427 45 -90 105 -122 357 -187
185 -49 231 -67 253 -100 23 -36 28 -87 11 -127 -45 -107 -248 -150 -393 -84
-60 28 -90 66 -107 136 l-12 50 -84 0 -84 0 6 -44 c18 -129 109 -254 211 -289
86 -29 206 -40 304 -27 152 19 251 82 310 195 23 43 27 62 27 140 0 184 -58
229 -404 315 -188 47 -241 82 -241 162 0 94 65 141 195 142 142 0 210 -35 242
-125 l18 -49 82 0 83 0 -6 43 c-10 62 -52 143 -97 184 -92 83 -247 118 -405
92z"/>
<path d="M1832 1648 l3 -423 26 -55 c31 -65 76 -112 138 -143 40 -19 62 -22
171 -22 123 0 126 0 188 34 35 19 81 54 102 79 l39 44 3 -69 3 -68 83 -3 82
-3 0 526 0 525 -89 0 -90 0 -3 -342 c-3 -332 -4 -345 -27 -401 -32 -81 -91
-141 -160 -161 -66 -19 -123 -20 -174 -2 -50 18 -76 42 -98 91 -17 37 -19 73
-19 428 l0 387 -90 0 -91 0 3 -422z"/>
</g>
</svg>
